<svg width="14" height="13" viewBox="0 0 14 13" fill="none" xmlns="http://www.w3.org/2000/svg">
<path d="M13.2824 10.3571C13.2824 10.2946 13.2824 10.2321 13.2556 10.1696C13.1931 9.98214 12.7556 9.78571 12.577 9.69643C12.0681 9.41071 11.5502 9.13393 11.0502 8.83929C10.8181 8.69643 10.5324 8.42857 10.2556 8.42857C9.71094 8.42857 8.9163 10.0446 8.43415 10.0446C8.19308 10.0446 7.88058 9.82143 7.6663 9.69643C6.0413 8.79464 4.9163 7.66964 4.01451 6.04464C3.88951 5.83036 3.66629 5.51786 3.66629 5.27679C3.66629 4.79464 5.28237 4 5.28237 3.45536C5.28237 3.17857 5.01451 2.89286 4.87165 2.66071C4.57701 2.16071 4.30022 1.64286 4.01451 1.13393C3.92522 0.955357 3.72879 0.517857 3.54129 0.455357C3.47879 0.428571 3.41629 0.428571 3.35379 0.428571C3.03237 0.428571 2.40737 0.571428 2.11272 0.705357C1.67522 0.892857 1.38951 1.39286 1.16629 1.79464C0.88058 2.32143 0.710938 2.85714 0.710938 3.45536C0.710938 4.28571 1.05022 5.03571 1.32701 5.79464C1.52344 6.33929 1.76451 6.86607 2.06808 7.35714C3.00558 8.875 4.83594 10.7054 6.3538 11.6429C6.84487 11.9464 7.37165 12.1875 7.9163 12.3839C8.67522 12.6607 9.42522 13 10.2556 13C10.8538 13 11.3895 12.8304 11.9163 12.5446C12.3181 12.3214 12.8181 12.0357 13.0056 11.5982C13.1395 11.3036 13.2824 10.6786 13.2824 10.3571Z" fill="white"/>
</svg>
